<?xml version="1.0" encoding="UTF-8" standalone="no"?>
<!-- Generator: Adobe Illustrator 19.0.0, SVG Export Plug-In . SVG Version: 6.00 Build 0)  -->

<svg
   version="1.1"
   id="Layer_1"
   x="0px"
   y="0px"
   viewBox="0 0 290.625 290.625"
   style="enable-background:new 0 0 290.625 290.625;"
   xml:space="preserve"
   sodipodi:docname="disabled-svgrepo-com1.svg"
   inkscape:version="1.1.2 (b8e25be833, 2022-02-05)"
   xmlns:inkscape="http://www.inkscape.org/namespaces/inkscape"
   xmlns:sodipodi="http://sodipodi.sourceforge.net/DTD/sodipodi-0.dtd"
   xmlns="http://www.w3.org/2000/svg"
   xmlns:svg="http://www.w3.org/2000/svg"><defs
   id="defs47" /><sodipodi:namedview
   id="namedview45"
   pagecolor="#ffffff"
   bordercolor="#666666"
   borderopacity="1.0"
   inkscape:pageshadow="2"
   inkscape:pageopacity="0.0"
   inkscape:pagecheckerboard="0"
   showgrid="false"
   inkscape:zoom="2.7802151"
   inkscape:cx="145.13266"
   inkscape:cy="58.268874"
   inkscape:window-width="1920"
   inkscape:window-height="1001"
   inkscape:window-x="-9"
   inkscape:window-y="-9"
   inkscape:window-maximized="1"
   inkscape:current-layer="Layer_1" />
<g
   id="g12">
	<g
   id="g10">
		<g
   id="g8">
			<path
   d="M259.083,117.188c-2.813-11.423-7.327-22.298-13.453-32.423l22.322-22.317l-39.773-39.773l-22.322,22.322     c-10.116-6.127-20.995-10.641-32.419-13.453V0.001h-56.25v31.542C105.76,34.36,94.885,38.87,84.769,44.995L62.447,22.673     L22.673,62.448l22.322,22.317c-6.131,10.125-10.645,21-13.453,32.423H0v56.25h31.542c2.813,11.423,7.327,22.298,13.453,32.423     l-22.322,22.317l39.773,39.773l22.317-22.317c10.12,6.127,20.995,10.641,32.423,13.453v31.538h56.25v-31.542     c11.428-2.817,22.303-7.327,32.423-13.453l22.317,22.317l39.773-39.773l-22.322-22.317c6.131-10.12,10.645-20.995,13.453-32.423     h31.542v0.005h0.003v-56.25H259.083z M281.25,164.063h-29.7l-0.788,3.717c-2.728,12.891-7.781,25.069-15.019,36.197l-2.067,3.183     l21.019,21.014l-26.517,26.517l-21.009-21.014l-3.188,2.067c-11.128,7.233-23.311,12.286-36.202,15.019l-3.717,0.792v29.695     h-37.5v-29.695l-3.717-0.787c-12.891-2.733-25.073-7.786-36.202-15.019l-3.188-2.067l-21.009,21.014L35.93,228.178l21.019-21.014     l-2.067-3.183c-7.237-11.133-12.291-23.311-15.019-36.197l-0.788-3.722h-29.7v-37.5h29.7l0.788-3.717     c2.728-12.891,7.781-25.069,15.019-36.197l2.067-3.183L35.93,62.453l26.517-26.517l21.019,21.019l3.183-2.072     c11.123-7.233,23.302-12.286,36.197-15.019l3.717-0.792V9.376h37.5v29.695l3.717,0.788c12.895,2.733,25.073,7.786,36.197,15.019     l3.183,2.072l21.019-21.019l26.517,26.517l-21.019,21.014l2.067,3.183c7.237,11.133,12.291,23.311,15.019,36.197l0.787,3.722     h29.7V164.063z"
   id="path2" />
			<path
   d="M135.938,159.376c-12.923,0-23.438,10.514-23.438,23.438s10.514,23.438,23.438,23.438s23.438-10.514,23.438-23.438     S148.861,159.376,135.938,159.376z M135.938,196.876c-7.753,0-14.063-6.309-14.063-14.063c0-7.754,6.309-14.063,14.063-14.063     c7.754,0,14.062,6.31,14.062,14.064C150,190.568,143.691,196.876,135.938,196.876z"
   id="path4" />
			<path
   d="M145.313,70.313c-2.831,0-5.827,0.262-8.953,0.656c-4.242-6.047-11.241-10.031-19.172-10.031     c-12.923,0-23.438,10.514-23.438,23.438c0,2.044,0.347,3.994,0.839,5.883c-15.412,14.208-24.277,34.05-24.277,55.055     c0,19.594,7.509,38.02,21.103,52.083c6.145,18.722,23.77,32.292,44.522,32.292c12.534,0,23.906-4.973,32.325-13.013     c5.742-1.847,11.241-4.387,16.411-7.589l9.549,15.913h12.028c7.753,0,14.063-6.309,14.063-14.063     c0-6.703-4.711-12.323-10.997-13.725l-3.731-7.467c9.609-12.961,14.728-28.237,14.728-44.433     C220.313,103.959,186.666,70.313,145.313,70.313z M117.188,70.313c7.753,0,14.063,6.309,14.063,14.063     c0,7.754-6.309,14.063-14.063,14.063c-7.754,0-14.063-6.309-14.063-14.063C103.125,76.623,109.434,70.313,117.188,70.313z      M135.938,220.313c-20.677,0-37.5-16.823-37.5-37.5s16.823-37.5,37.5-37.5s37.5,16.823,37.5,37.5     S156.614,220.313,135.938,220.313z M114.417,121.313c2.048-2.625,5.128-4.125,8.456-4.125c5.269,0,9.722,3.773,10.589,8.972     l1.636,9.82c-7.195,0.127-13.983,1.894-20.044,4.927l-2.596-10.383C111.652,127.293,112.364,123.938,114.417,121.313z      M144.595,135.938h19.467c2.587,0,4.688,2.105,4.688,4.688s-2.1,4.688-4.688,4.688v0.089c-5.606-4.228-12.169-7.242-19.322-8.606     L144.595,135.938z M178.795,201.722c0.024-0.056,0.052-0.108,0.075-0.159h0.197C178.978,201.62,178.884,201.667,178.795,201.722z      M206.25,206.251c2.587,0,4.688,2.105,4.688,4.688s-2.1,4.688-4.688,4.688h-6.722l-14.063-23.438h-3.6     c0.619-3.028,0.947-6.164,0.947-9.375c0-1.584-0.084-3.145-0.239-4.688h6.717l14.063,28.125H206.25z M200.804,180.183     l-5.72-11.432h-14.433c-1.908-6.056-5.03-11.569-9.056-16.289c3.914-2.498,6.53-6.858,6.53-11.836     c0-7.753-6.309-14.063-14.063-14.063h-21.028l-0.323-1.95c-1.627-9.736-9.97-16.8-19.838-16.8c-6.234,0-12.009,2.817-15.848,7.73     c-3.834,4.912-5.175,11.203-3.656,17.255l3.356,13.42c-9.886,7.908-16.486,19.72-17.484,33.084     c-6.183-10.153-9.553-21.802-9.553-33.989c0-17.484,7.017-34.059,19.312-46.336c4.298,5.344,10.809,8.836,18.188,8.836     c12.923,0,23.438-10.514,23.438-23.438c0-1.523-0.169-3.005-0.45-4.448c1.781-0.159,3.483-0.239,5.137-0.239     c36.188,0,65.625,29.438,65.625,65.625C210.938,157.842,207.422,169.743,200.804,180.183z"
   id="path6" />
		</g>
	</g>
</g>
<g
   id="g14">
</g>
<g
   id="g16">
</g>
<g
   id="g18">
</g>
<g
   id="g20">
</g>
<g
   id="g22">
</g>
<g
   id="g24">
</g>
<g
   id="g26">
</g>
<g
   id="g28">
</g>
<g
   id="g30">
</g>
<g
   id="g32">
</g>
<g
   id="g34">
</g>
<g
   id="g36">
</g>
<g
   id="g38">
</g>
<g
   id="g40">
</g>
<g
   id="g42">
</g>
<path
   style="fill:#0000ff;stroke-width:0.359684"
   d="m 114.57578,97.980779 c -4.14749,-0.813013 -7.97721,-3.867581 -9.87819,-7.878805 -0.99697,-2.103685 -1.10829,-2.682719 -1.10654,-5.755981 0.002,-2.984999 0.13,-3.694601 1.01478,-5.612722 1.90689,-4.133931 6.22987,-7.402893 10.54503,-7.973956 7.62501,-1.009084 14.27257,3.861923 15.69282,11.498924 1.2911,6.942558 -3.85974,14.18587 -11.1764,15.716662 -2.15247,0.45034 -2.8202,0.451111 -5.0915,0.0059 z"
   id="path1176" /><path
   style="fill:#0000ff;stroke-width:0.359684"
   d="m 115.11427,140.04447 c -0.0939,-0.2678 -0.75833,-2.83386 -1.47661,-5.70234 -1.89261,-7.55818 -1.50437,-10.4131 1.87571,-13.79318 2.32689,-2.32689 3.81675,-2.92289 7.31885,-2.92783 2.71819,-0.004 3.27009,0.11354 4.97542,1.05817 3.62315,2.00697 4.86698,4.26458 6.04217,10.96678 0.4686,2.67244 0.852,5.12385 0.852,5.44757 0,0.48 -0.68493,0.66566 -3.71238,1.00632 -5.22482,0.58793 -9.24806,1.70672 -15.25794,4.24298 -0.24562,0.10365 -0.52336,-0.0307 -0.61722,-0.29847 z"
   id="path1215" /><path
   style="fill:#0000ff;stroke-width:0.359684"
   d="m 162.21767,143.84649 c -4.04612,-2.80446 -13.8032,-6.98657 -16.30005,-6.98657 -0.40838,0 -0.84254,-0.16186 -0.9648,-0.35969 -0.14619,-0.23653 3.23937,-0.35968 9.88795,-0.35968 11.18187,0 11.63331,0.0789 12.96657,2.26549 1.31657,2.15924 0.49992,4.99104 -1.77922,6.16963 -1.46455,0.75735 -1.74252,0.70416 -3.81045,-0.72918 z"
   id="path1254" /><path
   style="fill:#0000ff;stroke-width:0.359684"
   d="m 132.36386,219.9095 c -13.34662,-1.18327 -25.61588,-10.25812 -30.81714,-22.79366 -1.822263,-4.39182 -2.539163,-7.85675 -2.718127,-13.13727 -0.189609,-5.59464 0.474464,-9.67185 2.372627,-14.56721 5.77517,-14.89415 20.55015,-24.56241 36.37807,-23.80461 11.85711,0.56768 22.73363,6.7053 29.25742,16.50995 3.96478,5.95869 5.8882,11.70843 6.2404,18.65459 0.77589,15.30224 -7.47659,29.12054 -21.36245,35.7702 -3.32585,1.59268 -8.09914,2.97236 -11.17675,3.23054 -1.3305,0.11162 -2.9856,0.25279 -3.67799,0.3137 -0.6924,0.0609 -2.71562,-0.0184 -4.49606,-0.17623 z m 10.97038,-14.64116 c 4.9264,-1.61979 10.05497,-5.67212 12.71003,-10.04281 3.01297,-4.9599 4.16746,-11.69293 2.97691,-17.36159 -1.42485,-6.78432 -6.38419,-13.19447 -12.46999,-16.118 -7.01185,-3.36838 -14.16247,-3.37148 -21.162,-0.009 -3.94359,1.89435 -8.24069,6.05442 -10.23072,9.90447 -6.22611,12.04546 -1.61459,26.41266 10.37139,32.31209 3.96296,1.95055 5.85184,2.32908 10.97037,2.19846 3.38482,-0.0864 5.0739,-0.30472 6.83401,-0.88344 z"
   id="path1293" /><path
   style="fill:#0000ff;stroke-width:0.359684"
   d="m 199.10633,214.50711 c -0.40857,-0.66784 -3.61528,-6.02479 -7.12602,-11.90434 l -6.38316,-10.69008 -1.75043,-0.0105 c -1.72619,-0.0104 -1.74711,-0.0242 -1.51083,-0.99966 0.13179,-0.54402 0.33353,-3.61933 0.44833,-6.83401 l 0.20872,-5.84487 h 3.00971 3.00971 l 7.01564,14.02769 7.01565,14.0277 1.52776,0.002 c 2.4612,0.003 4.12356,0.63187 5.11775,1.9353 1.56555,2.05255 1.03135,5.1039 -1.14296,6.52856 -0.76647,0.50221 -1.92445,0.69746 -4.85188,0.81807 l -3.84513,0.15843 -0.74286,-1.21426 z"
   id="path1332" /><path
   style="fill:#ffcc00;stroke-width:0.359684"
   d="m 126.78875,266.22811 v -14.86526 l -3.75194,-0.78726 c -11.61872,-2.43793 -23.692017,-7.26775 -33.835077,-13.53543 -2.176091,-1.34467 -4.399228,-2.70588 -4.940309,-3.02491 L 83.277644,233.43518 72.840592,243.86455 62.40354,254.29393 49.367303,241.2577 36.331071,228.22146 46.760447,217.78441 57.189821,207.34736 56.609754,206.36358 c -0.319037,-0.54108 -1.680248,-2.76422 -3.024917,-4.94031 -6.267681,-10.14306 -11.097499,-22.21636 -13.535428,-33.83508 l -0.787262,-3.75194 H 24.396892 9.5316368 V 145.3125 126.78875 H 24.396892 39.262147 l 0.787262,-3.75194 c 2.437929,-11.61872 7.267747,-23.692017 13.535428,-33.835077 1.344669,-2.176091 2.70588,-4.399228 3.024917,-4.940309 L 57.189821,83.277644 46.760447,72.840592 36.331071,62.40354 49.367303,49.367303 62.40354,36.331071 72.747606,46.670526 c 5.689236,5.686697 10.479251,10.339452 10.644475,10.339452 0.165225,0 2.421194,-1.317506 5.013267,-2.927795 10.821124,-6.722458 22.666242,-11.522139 34.631462,-14.032774 l 3.75194,-0.787262 V 24.396892 9.5316368 h 18.52375 18.52375 v 14.8425192 14.84252 l 3.82854,0.832044 c 9.17749,1.99451 16.82277,4.686215 25.30589,8.909554 3.26414,1.625054 7.63431,4.039371 9.71148,5.365146 2.07718,1.325779 3.99499,2.496062 4.2618,2.600637 0.29735,0.116545 4.50891,-3.831873 10.8813,-10.201427 l 10.3962,-10.391559 13.03624,13.036232 13.03623,13.036237 -10.42938,10.437052 -10.42937,10.437052 0.58007,0.98378 c 0.31903,0.541081 1.68024,2.764218 3.02491,4.940309 6.26768,10.14306 11.0975,22.216357 13.53543,33.835077 l 0.78726,3.75194 h 14.86526 14.86525 v 18.52375 18.52375 h -14.86525 -14.86526 l -0.78726,3.75194 c -2.43793,11.61872 -7.26775,23.69202 -13.53543,33.83508 -1.34467,2.17609 -2.70588,4.39923 -3.02491,4.94031 l -0.58007,0.98378 10.42937,10.43705 10.42938,10.43705 -13.03623,13.03624 -13.03624,13.03623 -10.43705,-10.42938 -10.43705,-10.42937 -0.98378,0.58007 c -0.54108,0.31903 -2.76422,1.68024 -4.94031,3.02491 -10.10597,6.24476 -21.81916,10.94139 -33.75848,13.53612 l -3.82854,0.83205 v 14.84251 14.84252 H 145.3125 126.78875 Z m 17.43063,-37.15089 c 7.65637,-1.24452 16.29033,-5.32272 22.17012,-10.47191 1.44737,-1.26753 2.8109,-2.04651 4.8482,-2.76977 3.53085,-1.25347 7.99767,-3.30606 10.9133,-5.01487 1.22419,-0.71748 2.29026,-1.3045 2.36905,-1.3045 0.0788,0 2.27758,3.56087 4.8862,7.91305 l 4.74295,7.91306 5.79514,-0.007 c 7.0047,-0.009 10.07094,-0.4112 12.55181,-1.64804 2.54435,-1.26847 5.12242,-3.83397 6.4693,-6.43774 0.96422,-1.86402 1.13666,-2.62373 1.26539,-5.5751 0.12182,-2.79288 0.0141,-3.79986 -0.5895,-5.51308 -1.38364,-3.92697 -4.85128,-7.39168 -8.70555,-8.69821 -1.57551,-0.53407 -1.70366,-0.68923 -3.37541,-4.08693 l -1.73772,-3.53178 1.78733,-2.66309 c 6.63886,-9.89184 10.57032,-20.1206 12.14865,-31.60799 0.74389,-5.41418 0.74006,-15.15386 -0.008,-20.51769 -4.67314,-33.50502 -30.74593,-59.508858 -64.38489,-64.214623 -3.28828,-0.460001 -6.03527,-0.56437 -11.69082,-0.444192 l -7.39257,0.157092 -0.88017,-1.202799 c -2.2984,-3.140919 -7.87808,-6.679793 -12.39006,-7.858302 -2.94393,-0.768941 -8.7248,-0.765405 -11.6836,0.0072 -8.32151,2.172775 -14.966244,8.883273 -17.08758,17.256705 -0.587441,2.318767 -0.711625,7.848022 -0.223429,9.948094 0.294869,1.268445 0.234388,1.372933 -2.394254,4.13637 -11.643743,12.240825 -18.50719,26.255085 -20.776842,42.423565 -0.637174,4.53907 -0.719182,14.72641 -0.154726,19.21989 1.932851,15.38683 7.961701,28.68185 18.538239,40.88113 1.22774,1.41611 2.43401,3.19655 2.680595,3.95653 1.366667,4.21205 5.1939,10.54745 8.939687,14.7983 10.67459,12.11387 26.75078,17.65809 43.36922,14.9568 z"
   id="path1543" /></svg>
